# xmcd
#
# Track frame offsets:
#	150
#	18460
#	35187
#	56868
#	77360
#	91174
#	109991
#	124437
#	140860
#	162353
#	181483
#	197320
#	216343
#	232694
#	250707
#	269811
#	291763
#	312125
#	328875
#	344069
#
# Disc length: 4788 seconds
#
# Revision: 1
# Processed by: cddbd v1.5.2PL0 Copyright (c) Steve Scherf et al.
# Submitted via: EZCDAudioConverter 5.2.1.1
#
DISCID=3612b214
DTITLE=Various Artist - Ministry of Sound R&B Mixtape
DYEAR=2017
DGENRE=R&B
TTITLE0=Destiny's Child - Cater 2 U
TTITLE1=Usher and Alicia Keys - My Boo
TTITLE2=Justin Timberlake - Cry Me a River
TTITLE3=Craig David - Rendezvous
TTITLE4=Miguel - Adorn
TTITLE5=Chris Brown - With You
TTITLE6=Frank Ocean - Thinkin Bout You
TTITLE7=Ashanti - Foolish
TTITLE8=Nelly feat Kelly Rowland - Dilemma
TTITLE9=Jordin Sparks and Chris Brown - No Air
TTITLE10=Ne-Yo - Sexy Love
TTITLE11=Mario - Let Me Love You
TTITLE12=Rira Ora feat Chris Brown - Body On Me
TTITLE13=Bow Wow feat Omarion - Let Me Hold You
TTITLE14=Bobby V - Tell Me
TTITLE15=Tamia feat Fabulous - Into You
TTITLE16=J Holiday - Bed
TTITLE17=Jeremih - Birthday Sex
TTITLE18=Justin Bieber - Company
TTITLE19=Bryson Tiller - Don't
EXTD=
EXTT0=
EXTT1=
EXTT2=
EXTT3=
EXTT4=
EXTT5=
EXTT6=
EXTT7=
EXTT8=
EXTT9=
EXTT10=
EXTT11=
EXTT12=
EXTT13=
EXTT14=
EXTT15=
EXTT16=
EXTT17=
EXTT18=
EXTT19=
PLAYORDER=
